<svg xmlns="http://www.w3.org/2000/svg" xmlns:xlink="http://www.w3.org/1999/xlink" width="500" zoomAndPan="magnify" viewBox="0 0 375 374.999991" height="500" preserveAspectRatio="xMidYMid meet" version="1.0"><path fill="#00bf63" d="M 97.886719 93.828125 C 96.847656 96.949219 96.5 99.722656 97.195312 100.070312 C 97.886719 100.765625 105.171875 105.273438 113.152344 110.480469 C 128.417969 120.195312 133.96875 131.296875 129.804688 144.132812 C 125.296875 158.355469 103.4375 160.089844 96.5 146.90625 C 91.988281 138.582031 96.847656 132.335938 107.949219 131.988281 C 118.703125 131.988281 119.746094 124.007812 109.683594 119.5 C 93.03125 111.867188 76.03125 130.949219 82.96875 148.988281 C 90.949219 170.152344 118.703125 175.007812 135.355469 158.355469 C 153.398438 139.96875 148.191406 119.152344 120.089844 98.683594 C 104.132812 87.234375 101.007812 86.539062 97.886719 93.828125 Z M 97.886719 93.828125 " fill-opacity="1" fill-rule="nonzero"/><path fill="#00bf63" d="M 239.089844 97.296875 C 239.089844 100.070312 243.601562 104.582031 249.5 107.703125 C 273.785156 120.195312 281.761719 142.398438 265.109375 153.152344 C 255.394531 159.746094 244.292969 156.96875 238.742188 146.90625 C 234.234375 138.582031 237.355469 134.765625 249.5 133.03125 C 262.335938 131.296875 260.601562 121.929688 247.070312 120.539062 C 234.582031 119.152344 221.742188 129.214844 221.742188 140.664062 C 221.742188 150.722656 239.4375 168.417969 249.5 169.113281 C 265.457031 169.804688 269.273438 168.417969 278.640625 159.746094 C 291.128906 148.296875 291.128906 128.171875 278.640625 112.90625 C 263.722656 95.5625 239.089844 85.5 239.089844 97.296875 Z M 239.089844 97.296875 " fill-opacity="1" fill-rule="nonzero"/><path fill="#00bf63" d="M 313.335938 155.929688 C 306.742188 158.703125 300.152344 165.640625 296.683594 173.621094 C 287.3125 193.050781 291.128906 215.601562 308.824219 245.785156 C 325.128906 274.234375 329.292969 297.132812 317.84375 299.558594 C 308.476562 301.292969 298.070312 290.539062 288.703125 269.027344 C 277.601562 244.398438 268.234375 234.335938 255.742188 234.335938 C 241.867188 234.335938 238.394531 245.4375 241.171875 280.476562 C 243.253906 304.070312 242.558594 309.96875 238.050781 313.785156 C 230.417969 320.027344 221.050781 316.210938 213.417969 303.722656 C 205.785156 290.539062 205.4375 256.191406 213.070312 221.152344 C 220.007812 186.804688 219.660156 179.867188 209.601562 170.152344 C 197.457031 157.664062 182.886719 158.703125 167.621094 172.582031 C 151.664062 187.5 148.886719 200.683594 151.316406 255.152344 C 152.355469 279.4375 152.355469 303.722656 150.96875 309.273438 L 148.191406 319.335938 L 141.949219 311.355469 C 138.132812 306.84375 134.316406 296.4375 132.929688 287.761719 C 130.5 271.457031 117.316406 251.683594 108.988281 251.683594 C 106.5625 251.683594 99.273438 264.171875 93.03125 279.4375 C 79.847656 311.007812 74.640625 313.4375 64.234375 291.925781 C 54.519531 272.152344 54.867188 229.132812 65.273438 198.949219 C 73.601562 174.316406 72.214844 165.296875 59.03125 158.355469 C 46.195312 151.417969 11.847656 168.765625 8.03125 184.375 C 4.5625 197.558594 10.460938 211.4375 19.828125 212.824219 C 28.5 214.214844 29.539062 209.703125 23.296875 199.640625 C 17.398438 190.621094 22.253906 182.640625 38.90625 173.621094 C 58.335938 163.214844 61.457031 169.113281 51.398438 198.601562 C 37.171875 240.582031 42.03125 290.886719 62.847656 313.089844 C 77.765625 329.050781 91.640625 321.761719 102.746094 291.925781 C 106.214844 282.558594 110.722656 274.925781 112.457031 275.273438 C 114.539062 275.273438 117.664062 282.210938 119.746094 290.539062 C 126.683594 316.558594 131.191406 324.539062 140.558594 328.703125 C 148.886719 332.519531 150.621094 332.171875 158.253906 323.152344 C 166.925781 313.089844 166.925781 312.394531 165.539062 254.804688 C 164.5 200.335938 164.847656 196.171875 171.785156 186.804688 C 180.457031 175.007812 199.539062 171.539062 203.355469 180.558594 C 204.398438 184.03125 202.660156 201.722656 199.191406 220.109375 C 190.867188 266.601562 192.949219 298.519531 205.4375 315.519531 C 216.539062 329.742188 228.683594 334.253906 241.171875 328.355469 C 254.007812 322.804688 257.476562 309.273438 254.703125 276.660156 C 252.96875 252.027344 253.316406 248.210938 258.171875 248.210938 C 261.640625 248.210938 268.234375 258.273438 276.210938 274.578125 C 290.785156 304.761719 303.621094 315.519531 320.621094 312.394531 C 345.253906 307.886719 345.601562 288.457031 322.355469 243.007812 C 301.886719 203.457031 299.804688 187.152344 313.679688 173.621094 C 324.089844 162.867188 328.253906 162.867188 348.375 172.582031 C 364.335938 180.558594 369.886719 179.519531 366.070312 170.152344 C 363.988281 164.253906 338.3125 151.070312 329.292969 151.417969 C 326.519531 151.417969 319.234375 153.5 313.335938 155.929688 Z M 313.335938 155.929688 " fill-opacity="1" fill-rule="nonzero"/></svg>